HIERARCHY
ROOT Hips
{
    OFFSET 0.000000 0.000000 0.000000
    CHANNELS 6 Xposition Yposition Zposition Zrotation Xrotation Yrotation
    JOINT Spine
    {
        OFFSET -0.000000 7.246840 0.000000
        CHANNELS 3 Zrotation Xrotation Yrotation
        JOINT Spine1
        {
            OFFSET -0.000000 20.289354 0.000000
            CHANNELS 3 Zrotation Xrotation Yrotation
            JOINT Neck
            {
                OFFSET -0.000000 20.206032 1.836912
                CHANNELS 3 Zrotation Xrotation Yrotation
                JOINT Head
                {
                    OFFSET -0.000000 12.372654 -1.767522
                    CHANNELS 3 Zrotation Xrotation Yrotation
                    End Site
                    {
                        OFFSET -0.000000 22.094025 0.000000
                    }
                }
            }
            JOINT LeftShoulder
            {
                OFFSET 3.465871 17.201674 -0.568930
                CHANNELS 3 Zrotation Xrotation Yrotation
                JOINT LeftArm
                {
                    OFFSET 14.070313 0.000000 0.000000
                    CHANNELS 3 Zrotation Xrotation Yrotation
                    JOINT LeftForeArm
                    {
                        OFFSET 26.549477 0.000000 0.000000
                        CHANNELS 3 Zrotation Xrotation Yrotation
                        JOINT LeftHand
                        {
                            OFFSET 18.880413 0.000000 0.000000
                            CHANNELS 3 Zrotation Xrotation Yrotation
                            End Site
                            {
                                OFFSET 13.256415 0.000000 0.000000
                            }
                        }
                    }
                }
            }
            JOINT RightShoulder
            {
                OFFSET -3.526370 17.201674 -0.568930
                CHANNELS 3 Zrotation Xrotation Yrotation
                JOINT RightArm
                {
                    OFFSET -14.070313 0.000000 0.000000
                    CHANNELS 3 Zrotation Xrotation Yrotation
                    JOINT RightForeArm
                    {
                        OFFSET -26.549477 0.000000 0.000000
                        CHANNELS 3 Zrotation Xrotation Yrotation
                        JOINT RightHand
                        {
                            OFFSET -18.880413 0.000000 0.000000
                            CHANNELS 3 Zrotation Xrotation Yrotation
                            End Site
                            {
                                OFFSET -13.256415 0.000000 0.000000
                            }
                        }
                    }
                }
            }
        }
    }
    JOINT LeftUpLeg
    {
        OFFSET 8.837609 0.000000 0.000000
        CHANNELS 3 Zrotation Xrotation Yrotation
        JOINT LeftLeg
        {
            OFFSET -0.000000 -41.345005 0.000000
            CHANNELS 3 Zrotation Xrotation Yrotation
            JOINT LeftFoot
            {
                OFFSET -0.000000 -35.500874 0.000000
                CHANNELS 3 Zrotation Xrotation Yrotation
                JOINT LeftToeBase
                {
                    OFFSET -0.000000 -5.744446 13.256415
                    CHANNELS 3 Zrotation Xrotation Yrotation
                    End Site
                    {
                        OFFSET -0.000000 0.000000 3.535044
                    }
                }
            }
        }
    }
    JOINT RightUpLeg
    {
        OFFSET -8.837609 0.000000 0.000000
        CHANNELS 3 Zrotation Xrotation Yrotation
        JOINT RightLeg
        {
            OFFSET -0.000000 -41.345005 0.000000
            CHANNELS 3 Zrotation Xrotation Yrotation
            JOINT RightFoot
            {
                OFFSET -0.000000 -35.500874 0.000000
                CHANNELS 3 Zrotation Xrotation Yrotation
                JOINT RightToeBase
                {
                    OFFSET -0.000000 -5.744446 13.256415
                    CHANNELS 3 Zrotation Xrotation Yrotation
                    End Site
                    {
                        OFFSET -0.000000 0.000000 3.535044
                    }
                }
            }
        }
    }
}
MOTION
Frames:    13
Frame Time:    0.010000
17.659565    88.712601    13.409413    2.323042    -6.061884    7.870702    -5.086011    -5.892509    -3.623593    0.995967    5.447562    -3.409012    6.597204    38.536266    -3.019034    12.025042    -26.218138    2.741553    15.338632    -2.004267    8.585346    -59.293686    16.970243    -14.032001    4.381462    -28.737600    -117.045296    -37.410664    -10.189077    -35.882893    -12.523541    9.098974    9.088399    -131.239014    -43.961021    -172.845215    -67.974136    11.504834    -110.944687    -101.131058    -49.996460    -75.066277    0.944506    4.166491    1.991508    0.061367    18.286850    -0.695053    0.781073    12.753909    -10.425766    1.740317    -12.381771    -2.649686    -15.888380    -19.578358    -28.972734    -1.821161    35.198322    2.918301    13.170890    10.830566    -2.602757    -1.216452    -4.577931    2.297347    
17.431318    89.496216    13.507116    2.201717    -5.843198    7.095890    -5.116040    -6.306077    -3.606964    1.773542    5.467959    -3.409644    6.084799    38.351814    -2.678011    11.298646    -25.807293    2.661798    15.220078    -1.896643    8.769499    -58.748573    16.675713    -13.890481    5.016285    -29.145077    -117.001808    -37.483307    -9.757012    -35.464779    -12.691796    9.074152    9.305990    -130.920883    -44.431145    -172.897919    -68.482582    10.085380    -110.297295    -100.445839    -50.201508    -75.353821    1.078727    3.553339    2.643305    0.195166    18.271286    0.179097    1.419691    15.273722    -11.602348    1.857147    -12.492544    -2.829949    -14.937256    -19.036110    -28.674732    -2.350455    35.581387    3.301795    13.252193    9.716870    -2.727477    -1.224328    -4.856133    2.319907    
17.218489    90.203751    13.571149    2.195302    -5.623830    6.497575    -4.897989    -6.494203    -3.634349    1.880557    5.210429    -3.441840    5.827926    38.310890    -2.457760    10.667340    -25.540836    2.577277    15.099692    -1.243843    8.889116    -57.884651    16.219353    -13.843811    5.441730    -29.815853    -117.098206    -37.840740    -9.775938    -35.217670    -12.425426    9.074964    9.369127    -130.464325    -45.007740    -172.867020    -68.950996    8.377398    -109.788628    -99.962570    -50.826462    -75.760910    1.109883    2.696331    3.445495    0.498044    18.784147    0.295946    0.800216    17.545429    -11.855485    2.270015    -11.587622    -3.434960    -14.167689    -18.417620    -28.336309    -2.860474    35.915585    3.538768    13.077586    9.293213    -2.174204    -0.918182    -5.331544    1.749874    
17.011019    90.826019    13.590900    2.294295    -5.370203    6.021316    -4.865627    -6.562387    -3.695905    2.116260    4.866259    -3.506689    5.672670    38.324589    -2.229712    9.828852    -25.521698    2.476645    14.970382    -1.059244    9.116919    -57.528828    15.582414    -13.375088    4.145848    -28.781492    -118.069031    -37.287937    -10.877454    -34.933891    -12.094271    9.140766    9.306474    -129.990189    -45.387337    -172.566254    -69.327667    6.669342    -109.313354    -99.387840    -51.520145    -76.055679    1.099055    1.520784    4.070760    0.602188    20.000124    -0.038381    -1.958601    19.232719    -10.731212    1.834081    -9.823292    -2.739263    -13.549821    -17.793406    -27.925243    -3.413111    36.171558    3.843050    12.513612    9.309461    -1.587144    -1.006140    -6.125845    1.936177    
16.823723    91.364540    13.605958    2.418980    -5.178338    5.710140    -4.751324    -6.479979    -3.823148    2.236316    4.488609    -3.641657    4.920195    37.605762    -1.847690    9.622355    -24.454086    2.505128    14.748544    -0.931731    9.387034    -57.208702    15.351505    -12.599984    6.151626    -30.247971    -117.035454    -37.965374    -9.488939    -34.134480    -11.627182    9.215624    9.109093    -129.740768    -45.513184    -172.479980    -69.786980    4.823837    -108.479584    -98.563477    -51.548222    -75.819916    1.040091    0.201197    4.916913    0.800049    21.562212    -0.767269    -3.662273    19.252716    -10.190579    1.369009    -8.491472    -2.025264    -13.006800    -16.991505    -27.433495    -3.862231    36.268745    4.187577    12.133479    9.281909    -0.834841    -0.962949    -6.981262    1.872921    
16.627142    91.788528    13.603696    2.571269    -4.958637    5.463075    -4.565082    -6.331352    -3.857532    2.155920    4.053517    -3.681178    5.014933    37.114548    -1.830565    8.604212    -23.999660    2.126411    14.387849    -0.620670    9.507270    -56.761654    15.035261    -11.952535    6.665222    -31.093349    -116.847778    -38.699074    -9.593709    -33.653133    -10.973586    9.374011    8.567035    -129.523621    -45.326008    -172.460526    -70.314171    2.918906    -107.290970    -97.638039    -50.727524    -75.057976    1.024672    -1.251295    5.708290    0.864741    23.127569    -2.381985    -2.446806    18.472351    -11.128683    1.061635    -7.632464    -1.561132    -12.490419    -16.171486    -26.817297    -4.187776    36.235401    4.441575    11.830734    8.962904    -0.162572    -1.124907    -7.710722    2.208217    
16.435806    92.099243    13.609674    2.740551    -4.739186    5.261477    -4.392599    -6.230367    -3.890893    2.111928    3.727760    -3.720424    4.943837    36.417202    -1.800411    7.740091    -23.351954    1.763542    13.926260    -0.212156    9.593198    -56.502266    14.507769    -11.389418    7.313176    -31.536640    -116.400406    -38.761425    -9.442886    -32.843822    -10.330439    9.786208    7.860547    -129.949600    -45.153408    -173.165146    -70.905251    0.824883    -106.097534    -96.870178    -49.550964    -74.630753    0.987999    -2.649836    6.201213    0.775527    24.308586    -3.487279    -3.585612    18.310038    -11.032065    0.028101    -7.504231    -0.041286    -12.013389    -15.264457    -25.936726    -4.281616    36.068287    4.586655    12.039268    8.190484    0.324707    -1.285812    -8.249514    2.541584    
16.248358    92.289604    13.617725    2.938466    -4.506013    5.060963    -4.401914    -6.128166    -3.868392    2.269264    3.415446    -3.700286    4.995405    36.237701    -1.928958    6.919825    -23.522137    1.361064    13.479281    -0.020819    9.414545    -56.523994    14.554416    -10.363409    8.347958    -32.487930    -115.760490    -38.622803    -9.435750    -31.924196    -9.676887    9.908691    7.506659    -129.949600    -45.153408    -173.165146    -71.234093    -1.654693    -105.113365    -95.886009    -48.703049    -74.435799    0.886330    -3.961515    6.560859    0.727580    25.184181    -5.187952    -2.674372    17.880341    -10.522684    -0.346659    -8.978715    0.514649    -11.556472    -14.321768    -24.781576    -4.123485    35.761803    4.636006    12.343573    7.155574    0.677259    -1.289050    -8.711120    2.563369    
16.066057    92.367241    13.650680    3.176417    -4.302356    4.831358    -4.251820    -6.079376    -3.796417    2.178728    3.213118    -3.631642    4.776380    35.727421    -1.959017    6.413036    -23.214752    1.069521    12.597997    1.067288    9.502970    -56.011616    14.054716    -10.504750    8.958577    -32.955788    -114.993446    -38.571827    -9.577311    -31.006437    -8.979275    10.338360    6.957450    56.723446    43.665020    -2.088109    -26.689409    -18.407644    73.692642    -33.904247    -5.328466    23.242258    0.757236    -5.073410    6.566473    0.429192    25.420803    -4.848755    -3.798637    16.868034    -9.738094    0.311122    -8.919635    -0.461692    -11.133664    -13.257566    -23.276941    -3.666402    35.214355    4.419581    12.587892    6.078302    0.874678    -1.356130    -8.943164    2.704968    
15.902034    92.331970    13.698384    3.487199    -4.104053    4.609836    -4.348568    -6.185167    -3.822460    2.303563    3.250446    -3.652750    4.281122    35.615582    -1.910784    6.314387    -23.524572    1.000515    11.977683    1.570289    9.449677    -56.271851    13.605564    -9.745642    9.684852    -33.059380    -114.255005    -38.137451    -9.389349    -29.677006    -8.676009    10.373022    6.879437    57.329567    42.852215    -2.413788    -26.583145    -17.278893    71.084885    -35.085972    -5.340315    22.843475    0.466233    -5.994197    6.439680    0.282625    25.113289    -4.898910    -2.951574    15.579484    -9.561218    -0.238227    -9.814301    0.355816    -10.843163    -12.147379    -21.768454    -3.088548    34.527485    4.312202    12.511856    5.208296    0.970453    -1.457531    -9.104666    2.913373    
15.738795    92.189201    13.733909    3.872833    -3.848866    4.358309    -4.381797    -6.290290    -3.795082    2.062249    3.182766    -3.611465    4.344151    35.402618    -1.975099    5.788762    -23.540632    0.757065    11.720065    2.227686    9.300134    -56.818256    13.082780    -9.085955    10.008573    -32.995667    -113.668877    -38.166397    -9.528957    -28.160276    -8.078223    10.607098    6.676681    57.641510    42.109322    -2.373470    -26.493902    -16.326149    68.143501    -35.616711    -5.680549    23.122425    0.059771    -6.855718    6.291078    0.231326    24.419353    -4.953405    -2.461198    13.758277    -8.405981    -0.297341    -10.238034    0.445489    -10.609041    -11.118741    -20.266363    -2.586619    33.713730    4.081124    12.464393    4.860059    1.338497    -1.458621    -9.215950    2.919855    
15.593415    91.943832    13.751597    4.323742    -3.500610    4.025391    -4.438910    -6.483039    -3.751238    1.653641    3.102435    -3.544469    4.686037    35.101944    -2.039475    5.098486    -23.362375    0.497248    11.908454    3.056627    8.968023    -58.219040    12.248924    -8.044639    9.952085    -32.631618    -113.168259    -38.484879    -9.450160    -27.604408    -7.364975    10.896751    6.501192    57.731281    41.161602    -2.141154    -25.931572    -15.420401    65.345619    -36.298862    -6.281834    23.223217    -0.474379    -7.733606    6.172326    0.214350    23.507317    -4.018216    -1.884904    11.767529    -7.808819    0.285803    -9.810834    -0.426861    -10.449796    -10.232615    -18.747940    -2.175564    32.880905    4.672913    12.755605    4.594462    0.778573    -1.452121    -9.615918    2.922407    
15.443109    91.616913    13.775748    4.763149    -3.229578    3.654379    -4.556333    -6.675403    -3.688746    1.472637    3.204729    -3.464043    4.620741    34.638649    -1.864999    4.590074    -23.079901    0.459474    11.438356    3.354681    8.875303    -58.784344    11.943430    -7.427103    10.271626    -32.424473    -112.165543    -38.601418    -9.428482    -26.386419    -6.792043    10.964271    6.260926    57.820915    40.203835    -1.797211    -25.358150    -14.377264    62.363892    -37.273613    -6.747743    23.165300    -0.943556    -8.528860    5.891451    0.331479    22.502224    -3.818177    -0.473265    10.067287    -7.128846    -0.283527    -10.040211    0.424176    -10.290462    -9.267800    -17.216631    -1.717160    31.840189    4.373447    13.048047    5.001760    0.924551    -1.509228    -9.826670    3.045915    
